<?xml version="1.0" encoding="UTF-8"?>
<svg id="Layer_1" data-name="Layer 1" xmlns="http://www.w3.org/2000/svg" viewBox="0 0 32 32">
  <defs>
    <style>
      .cls-1 {
        fill: #caa559;
      }
    </style>
  </defs>
  <path class="cls-1" d="M19.85,6.36h-7.7c-3.19,0-5.79,2.6-5.79,5.79v7.7c0,3.19,2.6,5.79,5.79,5.79h7.7c3.19,0,5.79-2.6,5.79-5.79v-7.7c0-3.19-2.6-5.79-5.79-5.79ZM23.83,19.85c0,2.2-1.78,3.98-3.98,3.98h-7.7c-2.2,0-3.98-1.78-3.98-3.98v-7.7c0-2.2,1.78-3.98,3.98-3.98h7.7c2.2,0,3.98,1.78,3.98,3.98v7.7Z"/>
  <path class="cls-1" d="M22.24,10.93c0,.62-.51,1.13-1.13,1.13s-1.13-.51-1.13-1.13.51-1.13,1.13-1.13,1.13.51,1.13,1.13Z"/>
  <path class="cls-1" d="M16.08,11.25c-2.62,0-4.75,2.14-4.75,4.76s2.13,4.75,4.75,4.75,4.75-2.13,4.75-4.75-2.13-4.76-4.75-4.76ZM16.08,19.04c-1.68,0-3.04-1.36-3.04-3.04s1.36-3.05,3.04-3.05,3.04,1.37,3.04,3.05-1.36,3.04-3.04,3.04Z"/>
</svg>