<?xml version="1.0" encoding="UTF-8"?>
<svg id="Layer_1" data-name="Layer 1" xmlns="http://www.w3.org/2000/svg" viewBox="0 0 32 32">
  <defs>
    <style>
      .cls-1 {
        fill: #caa559;
        fill-rule: evenodd;
      }
    </style>
  </defs>
  <path class="cls-1" d="M25.08,10.89c0-.22-.17-.39-.39-.39h-4.22c-.1-2.75-2.07-4.95-4.48-4.95s-4.37,2.19-4.48,4.95h-4.22c-.21,0-.38.18-.38.39,0,.01,0,.02,0,.03h0l.6,13.27s0,.07,0,.11c0,0,0,.02,0,.03v.03s0,0,0,0c.09.92.76,1.67,1.67,1.7h0s13.46,0,13.46,0h0c.93-.03,1.68-.78,1.76-1.71h0s0-.01,0-.01c0,0,0-.02,0-.03,0-.02,0-.05,0-.07l.66-13.32h0s0-.01,0-.02ZM16,6.75c1.75,0,3.19,1.67,3.25,3.75h-6.5c.07-2.08,1.5-3.75,3.25-3.75ZM19.33,20.9c-.12.98-.72,1.77-1.64,2.17-.52.22-1.21.34-1.75.3-.85-.03-1.66-.24-2.39-.62-.26-.14-.66-.41-.96-.66-.08-.06-.09-.1-.04-.18.03-.04.08-.11.19-.28.16-.24.18-.27.2-.29.05-.08.14-.09.22-.02t.02.01s.01.01.05.04c.03.03.05.04.06.05.8.62,1.73.98,2.66,1.02,1.3-.02,2.24-.6,2.41-1.5.19-.99-.59-1.85-2.11-2.32-.48-.15-1.68-.63-1.9-.76-1.04-.61-1.53-1.41-1.46-2.4.11-1.37,1.38-2.39,2.99-2.4.72,0,1.44.15,2.13.44.24.1.68.34.83.45.09.06.1.14.05.22-.03.05-.07.12-.17.27h0c-.13.2-.13.21-.16.26-.05.08-.11.08-.2.03-.74-.5-1.56-.74-2.45-.76-1.12.02-1.96.69-2.01,1.6-.01.82.6,1.42,1.93,1.87,2.7.87,3.73,1.88,3.53,3.48Z"/>
</svg>