<?xml version="1.0" encoding="UTF-8"?>
<svg id="Layer_1" data-name="Layer 1" xmlns="http://www.w3.org/2000/svg" viewBox="0 0 32 32">
  <defs>
    <style>
      .cls-1 {
        fill: #caa559;
      }
    </style>
  </defs>
  <path class="cls-1" d="M13.77,14.38v-.78c-.27-.04-.54-.07-.82-.07-2.64,0-4.98,1.71-5.78,4.23-.79,2.52.14,5.27,2.31,6.78-2.28-2.44-2.15-6.26.29-8.53,1.09-1.01,2.51-1.59,3.99-1.62h0Z"/>
  <path class="cls-1" d="M13.92,23.18c1.48,0,2.69-1.17,2.76-2.64V7.36h2.41c-.05-.28-.07-.55-.07-.83h-3.29v13.16c-.05,1.48-1.27,2.66-2.76,2.66-.44,0-.88-.11-1.27-.32.52.72,1.35,1.14,2.23,1.15h0ZM23.58,11.83v-.73c-.89,0-1.75-.26-2.49-.75.65.75,1.52,1.27,2.49,1.48Z"/>
  <path class="cls-1" d="M21.09,10.35c-.73-.83-1.13-1.89-1.13-2.99h-.88c.23,1.23.95,2.31,2.01,2.99h0ZM12.96,16.83c-1.53,0-2.76,1.25-2.75,2.78,0,1.02.57,1.96,1.48,2.43-.89-1.23-.62-2.96.62-3.85.47-.34,1.04-.52,1.62-.52.28,0,.55.05.82.13v-3.35c-.27-.04-.54-.06-.82-.06h-.15v2.55c-.27-.07-.54-.1-.82-.1h0Z"/>
  <path class="cls-1" d="M23.58,11.83v2.55c-1.64,0-3.24-.52-4.57-1.48v6.69c0,3.34-2.72,6.04-6.06,6.04-1.24,0-2.45-.38-3.46-1.1,2.27,2.44,6.1,2.58,8.54.31,1.23-1.14,1.93-2.75,1.93-4.42v-6.67c1.33.95,2.93,1.47,4.57,1.46v-3.28c-.32,0-.64-.04-.96-.1h0Z"/>
  <path class="cls-1" d="M19.02,19.59v-6.69c1.33.96,2.93,1.47,4.57,1.46v-2.55c-.97-.2-1.84-.72-2.5-1.46-1.05-.68-1.78-1.76-2.01-2.99h-2.41v13.18c-.06,1.53-1.35,2.71-2.87,2.65-.85-.03-1.63-.45-2.13-1.14-1.35-.71-1.87-2.38-1.16-3.73.48-.9,1.41-1.47,2.43-1.48.28,0,.55.05.82.13v-2.59c-3.33.06-5.99,2.84-5.93,6.18.03,1.51.62,2.95,1.65,4.05,1.02.69,2.24,1.05,3.47,1.03,3.34,0,6.05-2.7,6.06-6.04Z"/>
</svg>